<mxfile host="app.diagrams.net" agent="Mozilla/5.0 (Windows NT 10.0; Win64; x64) AppleWebKit/537.36 (KHTML, like Gecko) Chrome/135.0.0.0 Safari/537.36" version="26.2.13">
  <diagram name="Page-1" id="b2G2cBfw3tKi4PA59Fiy">
    <mxGraphModel dx="1283" dy="535" grid="1" gridSize="10" guides="1" tooltips="1" connect="1" arrows="1" fold="1" page="1" pageScale="1" pageWidth="827" pageHeight="1169" math="0" shadow="0">
      <root>
        <mxCell id="0" />
        <mxCell id="1" parent="0" />
        <mxCell id="7OqduelqmPpx-q8XnIWb-1" value="Customer&amp;nbsp;" style="whiteSpace=wrap;html=1;align=center;" parent="1" vertex="1">
          <mxGeometry x="120" y="245" width="100" height="40" as="geometry" />
        </mxCell>
        <mxCell id="7OqduelqmPpx-q8XnIWb-2" value="Movie" style="whiteSpace=wrap;html=1;align=center;" parent="1" vertex="1">
          <mxGeometry x="600" y="240" width="100" height="40" as="geometry" />
        </mxCell>
        <mxCell id="7OqduelqmPpx-q8XnIWb-3" value="id" style="ellipse;whiteSpace=wrap;html=1;align=center;fontStyle=4;" parent="1" vertex="1">
          <mxGeometry y="145" width="100" height="40" as="geometry" />
        </mxCell>
        <mxCell id="7OqduelqmPpx-q8XnIWb-4" value="phone number" style="ellipse;whiteSpace=wrap;html=1;align=center;fontStyle=4;" parent="1" vertex="1">
          <mxGeometry y="185" width="100" height="40" as="geometry" />
        </mxCell>
        <mxCell id="7OqduelqmPpx-q8XnIWb-6" value="name" style="ellipse;whiteSpace=wrap;html=1;align=center;" parent="1" vertex="1">
          <mxGeometry y="225" width="100" height="40" as="geometry" />
        </mxCell>
        <mxCell id="7OqduelqmPpx-q8XnIWb-7" value="email" style="ellipse;shape=doubleEllipse;margin=3;whiteSpace=wrap;html=1;align=center;" parent="1" vertex="1">
          <mxGeometry y="265" width="100" height="40" as="geometry" />
        </mxCell>
        <mxCell id="7OqduelqmPpx-q8XnIWb-13" value="" style="endArrow=none;html=1;rounded=0;entryX=0;entryY=0.5;entryDx=0;entryDy=0;exitX=0.998;exitY=0.68;exitDx=0;exitDy=0;exitPerimeter=0;" parent="1" source="7OqduelqmPpx-q8XnIWb-3" edge="1">
          <mxGeometry relative="1" as="geometry">
            <mxPoint x="80" y="194.5" as="sourcePoint" />
            <mxPoint x="120" y="265" as="targetPoint" />
          </mxGeometry>
        </mxCell>
        <mxCell id="7OqduelqmPpx-q8XnIWb-14" value="" style="endArrow=none;html=1;rounded=0;exitX=1;exitY=0.5;exitDx=0;exitDy=0;" parent="1" source="7OqduelqmPpx-q8XnIWb-4" edge="1">
          <mxGeometry relative="1" as="geometry">
            <mxPoint x="90" y="204.5" as="sourcePoint" />
            <mxPoint x="120" y="265" as="targetPoint" />
          </mxGeometry>
        </mxCell>
        <mxCell id="7OqduelqmPpx-q8XnIWb-15" value="" style="endArrow=none;html=1;rounded=0;exitX=1;exitY=0.5;exitDx=0;exitDy=0;entryX=0;entryY=0.5;entryDx=0;entryDy=0;" parent="1" source="7OqduelqmPpx-q8XnIWb-6" edge="1">
          <mxGeometry relative="1" as="geometry">
            <mxPoint x="90" y="245" as="sourcePoint" />
            <mxPoint x="120" y="265" as="targetPoint" />
          </mxGeometry>
        </mxCell>
        <mxCell id="7OqduelqmPpx-q8XnIWb-16" value="" style="endArrow=none;html=1;rounded=0;entryX=0;entryY=0.5;entryDx=0;entryDy=0;exitX=1;exitY=0.5;exitDx=0;exitDy=0;" parent="1" source="7OqduelqmPpx-q8XnIWb-7" edge="1">
          <mxGeometry relative="1" as="geometry">
            <mxPoint x="90" y="204.5" as="sourcePoint" />
            <mxPoint x="120" y="265" as="targetPoint" />
            <Array as="points" />
          </mxGeometry>
        </mxCell>
        <mxCell id="7OqduelqmPpx-q8XnIWb-17" value="name" style="ellipse;whiteSpace=wrap;html=1;align=center;" parent="1" vertex="1">
          <mxGeometry x="727" y="220" width="100" height="40" as="geometry" />
        </mxCell>
        <mxCell id="7OqduelqmPpx-q8XnIWb-18" value="id (10 digit barcode)" style="ellipse;whiteSpace=wrap;html=1;align=center;fontStyle=4;" parent="1" vertex="1">
          <mxGeometry x="727" y="180" width="100" height="40" as="geometry" />
        </mxCell>
        <mxCell id="7OqduelqmPpx-q8XnIWb-19" value="year" style="ellipse;whiteSpace=wrap;html=1;align=center;" parent="1" vertex="1">
          <mxGeometry x="727" y="260" width="100" height="40" as="geometry" />
        </mxCell>
        <mxCell id="7OqduelqmPpx-q8XnIWb-20" value="status (in rental / in stock / lost)&amp;nbsp;" style="ellipse;whiteSpace=wrap;html=1;align=center;" parent="1" vertex="1">
          <mxGeometry x="727" y="300" width="100" height="40" as="geometry" />
        </mxCell>
        <mxCell id="7OqduelqmPpx-q8XnIWb-21" value="" style="endArrow=none;html=1;rounded=0;entryX=0;entryY=0.5;entryDx=0;entryDy=0;" parent="1" target="7OqduelqmPpx-q8XnIWb-18" edge="1">
          <mxGeometry relative="1" as="geometry">
            <mxPoint x="700" y="260" as="sourcePoint" />
            <mxPoint x="750" y="199.5" as="targetPoint" />
          </mxGeometry>
        </mxCell>
        <mxCell id="7OqduelqmPpx-q8XnIWb-23" value="" style="endArrow=none;html=1;rounded=0;entryX=0;entryY=0.5;entryDx=0;entryDy=0;" parent="1" target="7OqduelqmPpx-q8XnIWb-17" edge="1">
          <mxGeometry relative="1" as="geometry">
            <mxPoint x="700" y="260" as="sourcePoint" />
            <mxPoint x="860" y="260" as="targetPoint" />
          </mxGeometry>
        </mxCell>
        <mxCell id="7OqduelqmPpx-q8XnIWb-24" value="" style="endArrow=none;html=1;rounded=0;entryX=0;entryY=0.5;entryDx=0;entryDy=0;" parent="1" target="7OqduelqmPpx-q8XnIWb-20" edge="1">
          <mxGeometry relative="1" as="geometry">
            <mxPoint x="700" y="260" as="sourcePoint" />
            <mxPoint x="750" y="320" as="targetPoint" />
          </mxGeometry>
        </mxCell>
        <mxCell id="7OqduelqmPpx-q8XnIWb-25" value="" style="endArrow=none;html=1;rounded=0;entryX=0;entryY=0.5;entryDx=0;entryDy=0;" parent="1" target="7OqduelqmPpx-q8XnIWb-19" edge="1">
          <mxGeometry relative="1" as="geometry">
            <mxPoint x="700" y="260" as="sourcePoint" />
            <mxPoint x="860" y="260" as="targetPoint" />
          </mxGeometry>
        </mxCell>
        <mxCell id="7OqduelqmPpx-q8XnIWb-26" value="Coupon&amp;nbsp;" style="shape=ext;margin=3;double=1;whiteSpace=wrap;html=1;align=center;" parent="1" vertex="1">
          <mxGeometry x="130" y="365" width="100" height="40" as="geometry" />
        </mxCell>
        <mxCell id="7OqduelqmPpx-q8XnIWb-27" value="id" style="ellipse;whiteSpace=wrap;html=1;align=center;fontStyle=4;" parent="1" vertex="1">
          <mxGeometry x="250" y="350" width="100" height="40" as="geometry" />
        </mxCell>
        <mxCell id="7OqduelqmPpx-q8XnIWb-28" value="percent" style="ellipse;whiteSpace=wrap;html=1;align=center;" parent="1" vertex="1">
          <mxGeometry x="250" y="390" width="100" height="40" as="geometry" />
        </mxCell>
        <mxCell id="7OqduelqmPpx-q8XnIWb-29" value="" style="endArrow=none;html=1;rounded=0;entryX=0;entryY=0.5;entryDx=0;entryDy=0;exitX=1;exitY=0.5;exitDx=0;exitDy=0;" parent="1" source="7OqduelqmPpx-q8XnIWb-26" edge="1">
          <mxGeometry relative="1" as="geometry">
            <mxPoint x="170" y="335" as="sourcePoint" />
            <mxPoint x="250" y="370" as="targetPoint" />
          </mxGeometry>
        </mxCell>
        <mxCell id="7OqduelqmPpx-q8XnIWb-30" value="" style="endArrow=none;html=1;rounded=0;entryX=0;entryY=0.5;entryDx=0;entryDy=0;exitX=1;exitY=0.5;exitDx=0;exitDy=0;" parent="1" source="7OqduelqmPpx-q8XnIWb-26" target="7OqduelqmPpx-q8XnIWb-28" edge="1">
          <mxGeometry relative="1" as="geometry">
            <mxPoint x="170" y="335" as="sourcePoint" />
            <mxPoint x="330" y="335" as="targetPoint" />
          </mxGeometry>
        </mxCell>
        <mxCell id="7OqduelqmPpx-q8XnIWb-34" value="Rental rate" style="shape=ext;margin=3;double=1;whiteSpace=wrap;html=1;align=center;" parent="1" vertex="1">
          <mxGeometry x="600" y="120" width="100" height="40" as="geometry" />
        </mxCell>
        <mxCell id="7OqduelqmPpx-q8XnIWb-37" value="date" style="ellipse;whiteSpace=wrap;html=1;align=center;fontStyle=4;" parent="1" vertex="1">
          <mxGeometry x="490" y="95" width="100" height="40" as="geometry" />
        </mxCell>
        <mxCell id="7OqduelqmPpx-q8XnIWb-38" value="daily rate charge" style="ellipse;whiteSpace=wrap;html=1;align=center;" parent="1" vertex="1">
          <mxGeometry x="490" y="135" width="100" height="40" as="geometry" />
        </mxCell>
        <mxCell id="7OqduelqmPpx-q8XnIWb-44" value="id" style="ellipse;whiteSpace=wrap;html=1;align=center;fontStyle=4;" parent="1" vertex="1">
          <mxGeometry x="410" y="180" width="100" height="40" as="geometry" />
        </mxCell>
        <mxCell id="7OqduelqmPpx-q8XnIWb-45" value="date issued" style="ellipse;whiteSpace=wrap;html=1;align=center;" parent="1" vertex="1">
          <mxGeometry x="412" y="220" width="100" height="40" as="geometry" />
        </mxCell>
        <mxCell id="7OqduelqmPpx-q8XnIWb-46" value="date returned" style="ellipse;whiteSpace=wrap;html=1;align=center;" parent="1" vertex="1">
          <mxGeometry x="412" y="260" width="100" height="40" as="geometry" />
        </mxCell>
        <mxCell id="7OqduelqmPpx-q8XnIWb-47" value="balance" style="ellipse;whiteSpace=wrap;html=1;align=center;dashed=1;" parent="1" vertex="1">
          <mxGeometry y="305" width="100" height="40" as="geometry" />
        </mxCell>
        <mxCell id="7OqduelqmPpx-q8XnIWb-48" value="n of movies in rent&amp;nbsp;" style="ellipse;whiteSpace=wrap;html=1;align=center;dashed=1;" parent="1" vertex="1">
          <mxGeometry y="345" width="100" height="40" as="geometry" />
        </mxCell>
        <mxCell id="7OqduelqmPpx-q8XnIWb-51" value="charge" style="ellipse;whiteSpace=wrap;html=1;align=center;dashed=1;" parent="1" vertex="1">
          <mxGeometry x="412" y="300" width="100" height="40" as="geometry" />
        </mxCell>
        <mxCell id="7OqduelqmPpx-q8XnIWb-53" value="" style="endArrow=none;html=1;rounded=0;entryX=0;entryY=0.5;entryDx=0;entryDy=0;exitX=1;exitY=0.5;exitDx=0;exitDy=0;" parent="1" target="7OqduelqmPpx-q8XnIWb-44" edge="1" source="7OqduelqmPpx-q8XnIWb-42">
          <mxGeometry relative="1" as="geometry">
            <mxPoint x="390" y="260" as="sourcePoint" />
            <mxPoint x="520" y="260" as="targetPoint" />
          </mxGeometry>
        </mxCell>
        <mxCell id="7OqduelqmPpx-q8XnIWb-56" value="" style="endArrow=none;html=1;rounded=0;exitX=1;exitY=0.5;exitDx=0;exitDy=0;entryX=0;entryY=0.5;entryDx=0;entryDy=0;" parent="1" source="7OqduelqmPpx-q8XnIWb-42" target="7OqduelqmPpx-q8XnIWb-45" edge="1">
          <mxGeometry relative="1" as="geometry">
            <mxPoint x="370" y="260" as="sourcePoint" />
            <mxPoint x="530" y="260" as="targetPoint" />
          </mxGeometry>
        </mxCell>
        <mxCell id="7OqduelqmPpx-q8XnIWb-57" value="" style="endArrow=none;html=1;rounded=0;exitX=1;exitY=0.5;exitDx=0;exitDy=0;entryX=0;entryY=0.5;entryDx=0;entryDy=0;" parent="1" source="7OqduelqmPpx-q8XnIWb-42" target="7OqduelqmPpx-q8XnIWb-46" edge="1">
          <mxGeometry relative="1" as="geometry">
            <mxPoint x="370" y="260" as="sourcePoint" />
            <mxPoint x="530" y="260" as="targetPoint" />
          </mxGeometry>
        </mxCell>
        <mxCell id="7OqduelqmPpx-q8XnIWb-59" value="" style="endArrow=none;html=1;rounded=0;entryX=0;entryY=0.5;entryDx=0;entryDy=0;exitX=1;exitY=0.5;exitDx=0;exitDy=0;" parent="1" target="7OqduelqmPpx-q8XnIWb-51" edge="1" source="7OqduelqmPpx-q8XnIWb-42">
          <mxGeometry relative="1" as="geometry">
            <mxPoint x="390" y="260" as="sourcePoint" />
            <mxPoint x="430" y="400" as="targetPoint" />
          </mxGeometry>
        </mxCell>
        <mxCell id="7OqduelqmPpx-q8XnIWb-62" value="" style="endArrow=none;html=1;rounded=0;entryX=0;entryY=0.5;entryDx=0;entryDy=0;exitX=1;exitY=0.5;exitDx=0;exitDy=0;" parent="1" source="7OqduelqmPpx-q8XnIWb-47" edge="1">
          <mxGeometry relative="1" as="geometry">
            <mxPoint x="80" y="355" as="sourcePoint" />
            <mxPoint x="120" y="265" as="targetPoint" />
          </mxGeometry>
        </mxCell>
        <mxCell id="7OqduelqmPpx-q8XnIWb-63" value="" style="endArrow=none;html=1;rounded=0;exitX=1;exitY=0.5;exitDx=0;exitDy=0;" parent="1" source="7OqduelqmPpx-q8XnIWb-48" edge="1">
          <mxGeometry relative="1" as="geometry">
            <mxPoint x="80" y="395" as="sourcePoint" />
            <mxPoint x="120" y="265" as="targetPoint" />
          </mxGeometry>
        </mxCell>
        <mxCell id="7OqduelqmPpx-q8XnIWb-67" value="makes rentals&amp;nbsp;" style="shape=rhombus;perimeter=rhombusPerimeter;whiteSpace=wrap;html=1;align=center;" parent="1" vertex="1">
          <mxGeometry x="220" y="235" width="80" height="60" as="geometry" />
        </mxCell>
        <mxCell id="7OqduelqmPpx-q8XnIWb-70" value="" style="endArrow=none;html=1;rounded=0;entryX=0;entryY=0.5;entryDx=0;entryDy=0;" parent="1" source="7OqduelqmPpx-q8XnIWb-74" target="7OqduelqmPpx-q8XnIWb-2" edge="1">
          <mxGeometry relative="1" as="geometry">
            <mxPoint x="314" y="259" as="sourcePoint" />
            <mxPoint x="474" y="259" as="targetPoint" />
          </mxGeometry>
        </mxCell>
        <mxCell id="7OqduelqmPpx-q8XnIWb-72" value="" style="endArrow=none;html=1;rounded=0;exitX=0;exitY=0.5;exitDx=0;exitDy=0;" parent="1" edge="1" source="7OqduelqmPpx-q8XnIWb-67">
          <mxGeometry relative="1" as="geometry">
            <mxPoint x="190" y="265" as="sourcePoint" />
            <mxPoint x="290" y="265" as="targetPoint" />
          </mxGeometry>
        </mxCell>
        <mxCell id="7OqduelqmPpx-q8XnIWb-75" value="" style="endArrow=none;html=1;rounded=0;entryX=0;entryY=0.5;entryDx=0;entryDy=0;" parent="1" target="7OqduelqmPpx-q8XnIWb-74" edge="1" source="7OqduelqmPpx-q8XnIWb-42">
          <mxGeometry relative="1" as="geometry">
            <mxPoint x="390" y="260" as="sourcePoint" />
            <mxPoint x="620" y="260" as="targetPoint" />
          </mxGeometry>
        </mxCell>
        <mxCell id="7OqduelqmPpx-q8XnIWb-74" value="includes" style="shape=rhombus;perimeter=rhombusPerimeter;whiteSpace=wrap;html=1;align=center;" parent="1" vertex="1">
          <mxGeometry x="511" y="230" width="79" height="60" as="geometry" />
        </mxCell>
        <mxCell id="7OqduelqmPpx-q8XnIWb-77" value="gets&amp;nbsp;" style="shape=rhombus;double=1;perimeter=rhombusPerimeter;whiteSpace=wrap;html=1;align=center;" parent="1" vertex="1">
          <mxGeometry x="130" y="305" width="80" height="60" as="geometry" />
        </mxCell>
        <mxCell id="7OqduelqmPpx-q8XnIWb-78" value="has" style="shape=rhombus;double=1;perimeter=rhombusPerimeter;whiteSpace=wrap;html=1;align=center;" parent="1" vertex="1">
          <mxGeometry x="610" y="170" width="80" height="60" as="geometry" />
        </mxCell>
        <mxCell id="7OqduelqmPpx-q8XnIWb-80" value="" style="endArrow=none;html=1;rounded=0;" parent="1" edge="1">
          <mxGeometry relative="1" as="geometry">
            <mxPoint x="169.5" y="285" as="sourcePoint" />
            <mxPoint x="170" y="370" as="targetPoint" />
          </mxGeometry>
        </mxCell>
        <mxCell id="7OqduelqmPpx-q8XnIWb-81" value="" style="endArrow=none;html=1;rounded=0;exitX=0.5;exitY=0;exitDx=0;exitDy=0;entryX=0.5;entryY=1;entryDx=0;entryDy=0;" parent="1" source="7OqduelqmPpx-q8XnIWb-2" target="7OqduelqmPpx-q8XnIWb-34" edge="1">
          <mxGeometry relative="1" as="geometry">
            <mxPoint x="600" y="189" as="sourcePoint" />
            <mxPoint x="760" y="189" as="targetPoint" />
          </mxGeometry>
        </mxCell>
        <mxCell id="7OqduelqmPpx-q8XnIWb-83" value="&lt;font face=&quot;Helvetica&quot; style=&quot;font-size: 18px;&quot;&gt;Rental movies shop&amp;nbsp;&lt;/font&gt;&lt;div&gt;&lt;font face=&quot;Helvetica&quot; size=&quot;3&quot;&gt;Conceptual data model&amp;nbsp;&lt;span style=&quot;background-color: rgb(255, 255, 255);&quot;&gt;Chen notation&lt;/span&gt;&lt;/font&gt;&lt;/div&gt;&lt;div&gt;&lt;font face=&quot;Helvetica&quot; size=&quot;3&quot;&gt;&lt;span style=&quot;background-color: rgb(255, 255, 255);&quot;&gt;draw.io&lt;/span&gt;&lt;/font&gt;&lt;/div&gt;" style="text;strokeColor=none;fillColor=none;spacingLeft=4;spacingRight=4;overflow=hidden;rotatable=0;points=[[0,0.5],[1,0.5]];portConstraint=eastwest;fontSize=12;whiteSpace=wrap;html=1;" parent="1" vertex="1">
          <mxGeometry x="520" y="470" width="370" height="70" as="geometry" />
        </mxCell>
        <mxCell id="MuXi6b6GsRCbb1i_XY5X-4" value="" style="endArrow=none;html=1;rounded=0;entryX=0;entryY=0.5;entryDx=0;entryDy=0;exitX=1;exitY=0.5;exitDx=0;exitDy=0;" edge="1" parent="1" source="7OqduelqmPpx-q8XnIWb-38" target="7OqduelqmPpx-q8XnIWb-34">
          <mxGeometry width="50" height="50" relative="1" as="geometry">
            <mxPoint x="450" y="310" as="sourcePoint" />
            <mxPoint x="500" y="260" as="targetPoint" />
          </mxGeometry>
        </mxCell>
        <mxCell id="MuXi6b6GsRCbb1i_XY5X-5" value="" style="endArrow=none;html=1;rounded=0;exitX=1;exitY=0.5;exitDx=0;exitDy=0;" edge="1" parent="1" source="7OqduelqmPpx-q8XnIWb-37">
          <mxGeometry width="50" height="50" relative="1" as="geometry">
            <mxPoint x="580" y="120" as="sourcePoint" />
            <mxPoint x="600" y="140" as="targetPoint" />
            <Array as="points" />
          </mxGeometry>
        </mxCell>
        <mxCell id="MuXi6b6GsRCbb1i_XY5X-6" value="Employee" style="whiteSpace=wrap;html=1;align=center;" vertex="1" parent="1">
          <mxGeometry x="310" y="80" width="100" height="40" as="geometry" />
        </mxCell>
        <mxCell id="MuXi6b6GsRCbb1i_XY5X-9" value="registers&amp;nbsp;" style="shape=rhombus;perimeter=rhombusPerimeter;whiteSpace=wrap;html=1;align=center;" vertex="1" parent="1">
          <mxGeometry x="310" y="160" width="80" height="60" as="geometry" />
        </mxCell>
        <mxCell id="MuXi6b6GsRCbb1i_XY5X-10" value="" style="line;strokeWidth=1;rotatable=0;dashed=0;labelPosition=right;align=left;verticalAlign=middle;spacingTop=0;spacingLeft=6;points=[];portConstraint=eastwest;" vertex="1" parent="1">
          <mxGeometry x="440" y="280" width="60" height="10" as="geometry" />
        </mxCell>
        <mxCell id="MuXi6b6GsRCbb1i_XY5X-14" value="" style="endArrow=none;html=1;rounded=0;entryX=0.5;entryY=0;entryDx=0;entryDy=0;exitX=0.41;exitY=1.03;exitDx=0;exitDy=0;exitPerimeter=0;" edge="1" parent="1" source="MuXi6b6GsRCbb1i_XY5X-6" target="7OqduelqmPpx-q8XnIWb-42">
          <mxGeometry relative="1" as="geometry">
            <mxPoint x="350" y="130" as="sourcePoint" />
            <mxPoint x="339.5" y="187.5" as="targetPoint" />
          </mxGeometry>
        </mxCell>
        <mxCell id="MuXi6b6GsRCbb1i_XY5X-16" value="id&amp;nbsp;" style="ellipse;whiteSpace=wrap;html=1;align=center;fontStyle=4;" vertex="1" parent="1">
          <mxGeometry x="200" y="15" width="100" height="40" as="geometry" />
        </mxCell>
        <mxCell id="MuXi6b6GsRCbb1i_XY5X-17" value="name" style="ellipse;whiteSpace=wrap;html=1;align=center;" vertex="1" parent="1">
          <mxGeometry x="200" y="55" width="100" height="40" as="geometry" />
        </mxCell>
        <mxCell id="MuXi6b6GsRCbb1i_XY5X-18" value="date&amp;nbsp;" style="ellipse;whiteSpace=wrap;html=1;align=center;" vertex="1" parent="1">
          <mxGeometry x="200" y="95" width="100" height="40" as="geometry" />
        </mxCell>
        <mxCell id="MuXi6b6GsRCbb1i_XY5X-19" value="shift&amp;nbsp;" style="ellipse;whiteSpace=wrap;html=1;align=center;" vertex="1" parent="1">
          <mxGeometry x="200" y="135" width="100" height="40" as="geometry" />
        </mxCell>
        <mxCell id="MuXi6b6GsRCbb1i_XY5X-20" value="" style="line;strokeWidth=1;rotatable=0;dashed=0;labelPosition=right;align=left;verticalAlign=middle;spacingTop=0;spacingLeft=6;points=[];portConstraint=eastwest;" vertex="1" parent="1">
          <mxGeometry x="440" y="280" width="60" height="10" as="geometry" />
        </mxCell>
        <mxCell id="MuXi6b6GsRCbb1i_XY5X-22" value="" style="line;strokeWidth=1;rotatable=0;dashed=0;labelPosition=right;align=left;verticalAlign=middle;spacingTop=0;spacingLeft=6;points=[];portConstraint=eastwest;" vertex="1" parent="1">
          <mxGeometry x="440" y="280" width="60" height="10" as="geometry" />
        </mxCell>
        <mxCell id="MuXi6b6GsRCbb1i_XY5X-24" value="" style="endArrow=none;html=1;rounded=0;exitX=1;exitY=0.5;exitDx=0;exitDy=0;" edge="1" parent="1" source="MuXi6b6GsRCbb1i_XY5X-18">
          <mxGeometry relative="1" as="geometry">
            <mxPoint x="150" y="99" as="sourcePoint" />
            <mxPoint x="310" y="99" as="targetPoint" />
          </mxGeometry>
        </mxCell>
        <mxCell id="MuXi6b6GsRCbb1i_XY5X-26" value="" style="endArrow=none;html=1;rounded=0;exitX=1;exitY=0.5;exitDx=0;exitDy=0;" edge="1" parent="1" source="MuXi6b6GsRCbb1i_XY5X-19">
          <mxGeometry relative="1" as="geometry">
            <mxPoint x="150" y="100" as="sourcePoint" />
            <mxPoint x="310" y="100" as="targetPoint" />
          </mxGeometry>
        </mxCell>
        <mxCell id="MuXi6b6GsRCbb1i_XY5X-28" value="" style="endArrow=none;html=1;rounded=0;exitX=1;exitY=0.5;exitDx=0;exitDy=0;" edge="1" parent="1">
          <mxGeometry relative="1" as="geometry">
            <mxPoint x="300" y="80" as="sourcePoint" />
            <mxPoint x="310" y="100" as="targetPoint" />
          </mxGeometry>
        </mxCell>
        <mxCell id="MuXi6b6GsRCbb1i_XY5X-29" value="" style="endArrow=none;html=1;rounded=0;entryX=0;entryY=0.5;entryDx=0;entryDy=0;exitX=1;exitY=0.5;exitDx=0;exitDy=0;" edge="1" parent="1" source="MuXi6b6GsRCbb1i_XY5X-16" target="MuXi6b6GsRCbb1i_XY5X-6">
          <mxGeometry relative="1" as="geometry">
            <mxPoint x="290" y="50" as="sourcePoint" />
            <mxPoint x="440" y="34.5" as="targetPoint" />
          </mxGeometry>
        </mxCell>
        <mxCell id="MuXi6b6GsRCbb1i_XY5X-31" value="" style="endArrow=none;html=1;rounded=0;entryX=0;entryY=0.5;entryDx=0;entryDy=0;" edge="1" parent="1" target="7OqduelqmPpx-q8XnIWb-42">
          <mxGeometry relative="1" as="geometry">
            <mxPoint x="390" y="260" as="sourcePoint" />
            <mxPoint x="511" y="260" as="targetPoint" />
          </mxGeometry>
        </mxCell>
        <mxCell id="7OqduelqmPpx-q8XnIWb-42" value="Rental&amp;nbsp;" style="whiteSpace=wrap;html=1;align=center;" parent="1" vertex="1">
          <mxGeometry x="300" y="240" width="100" height="40" as="geometry" />
        </mxCell>
      </root>
    </mxGraphModel>
  </diagram>
</mxfile>
